<?xml version="1.0" encoding="UTF-8" standalone="no"?>
<!-- Created with Inkscape (http://www.inkscape.org/) -->

<svg
   width="86.589523mm"
   height="80.768692mm"
   viewBox="0 0 86.589523 80.768692"
   version="1.1"
   id="svg1"
   xmlns="http://www.w3.org/2000/svg"
   xmlns:svg="http://www.w3.org/2000/svg">
  <defs
     id="defs1" />
  <g
     id="layer1"
     transform="translate(-16.261368,-61.981188)">
    <g
       id="g11">
      <path
         style="fill:#ffffff;stroke:#000000;stroke-width:1.32292;stroke-dasharray:none"
         id="path1"
         d="M 50.331096,78.023872 A 15.381217,15.381217 0 0 1 34.98087,93.405058 15.381217,15.381217 0 0 1 19.568787,78.085855 15.381217,15.381217 0 0 1 34.856905,62.642936 15.381217,15.381217 0 0 1 50.330596,77.899909" />
      <path
         style="fill:#ffffff;stroke:#000000;stroke-width:1.32292;stroke-dasharray:none"
         id="path2"
         d="M 47.685264,126.44262 A 15.381217,15.381217 0 0 1 32.335038,141.82381 15.381217,15.381217 0 0 1 16.922955,126.5046 15.381217,15.381217 0 0 1 32.211073,111.06168 15.381217,15.381217 0 0 1 47.684764,126.31866" />
      <path
         style="fill:#ffffff;stroke:#000000;stroke-width:1.32292;stroke-dasharray:none"
         id="path3"
         d="M 102.18943,78.023872 A 15.381217,15.381217 0 0 1 86.839204,93.405058 15.381217,15.381217 0 0 1 71.42712,78.085855 15.381217,15.381217 0 0 1 86.715239,62.642936 15.381217,15.381217 0 0 1 102.18893,77.899909" />
      <path
         style="fill:#ffffff;stroke:#000000;stroke-width:1.32292;stroke-dasharray:none"
         id="path4"
         d="M 101.13109,126.70721 A 15.381217,15.381217 0 0 1 85.780869,142.08839 15.381217,15.381217 0 0 1 70.368786,126.76919 15.381217,15.381217 0 0 1 85.656905,111.32627 15.381217,15.381217 0 0 1 101.1306,126.58324" />
      <path
         style="fill:#ffffff;stroke:#000000;stroke-width:1.32292;stroke-dasharray:none"
         d="M 33.866666,93.133332 C 32.014583,111.38958 32.014583,111.38958 32.014583,111.38958"
         id="path5" />
      <path
         style="fill:#ffffff;stroke:#000000;stroke-width:1.32292;stroke-dasharray:none"
         d="m 49.741666,76.993749 c 20.902083,1.5875 20.902083,1.5875 20.902083,1.5875"
         id="path6" />
      <path
         style="fill:#ffffff;stroke:#000000;stroke-width:1.32292;stroke-dasharray:none"
         d="m 48.154166,127.52917 c 22.225,0.52916 22.225,0.52916 22.225,0.52916"
         id="path7" />
      <text
         xml:space="preserve"
         style="font-size:31.0879px;line-height:1.25;font-family:Consolas;-inkscape-font-specification:Consolas;text-align:start;writing-mode:lr-tb;direction:ltr;text-anchor:start;fill:#000000;fill-opacity:1;stroke:none;stroke-width:1.32292;stroke-dasharray:none"
         x="25.200722"
         y="88.88369"
         id="text7"
         transform="scale(1.0210893,0.97934627)"><tspan
           id="tspan7"
           style="fill:#000000;fill-opacity:1;stroke:none;stroke-width:1.32292"
           x="25.200722"
           y="88.88369">1</tspan></text>
      <text
         xml:space="preserve"
         style="font-size:31.0879px;line-height:1.25;font-family:Consolas;-inkscape-font-specification:Consolas;text-align:start;writing-mode:lr-tb;direction:ltr;text-anchor:start;fill:#000000;fill-opacity:1;stroke:none;stroke-width:1.32292;stroke-dasharray:none"
         x="22.868654"
         y="138.32356"
         id="text8"
         transform="scale(1.0210893,0.97934627)"><tspan
           id="tspan8"
           style="fill:#000000;fill-opacity:1;stroke:none;stroke-width:1.32292"
           x="22.868654"
           y="138.32356">2</tspan></text>
      <text
         xml:space="preserve"
         style="font-size:31.0879px;line-height:1.25;font-family:Consolas;-inkscape-font-specification:Consolas;text-align:start;writing-mode:lr-tb;direction:ltr;text-anchor:start;fill:#000000;fill-opacity:1;stroke:none;stroke-width:1.32292;stroke-dasharray:none"
         x="76.247108"
         y="88.883698"
         id="text10"
         transform="scale(1.0210893,0.97934627)"><tspan
           id="tspan10"
           style="fill:#000000;fill-opacity:1;stroke:none;stroke-width:1.32292"
           x="76.247108"
           y="88.883698">3</tspan></text>
      <text
         xml:space="preserve"
         style="font-size:31.0879px;line-height:1.25;font-family:Consolas;-inkscape-font-specification:Consolas;text-align:start;writing-mode:lr-tb;direction:ltr;text-anchor:start;fill:#000000;fill-opacity:1;stroke:none;stroke-width:1.32292;stroke-dasharray:none"
         x="75.210632"
         y="139.40422"
         id="text11"
         transform="scale(1.0210893,0.97934627)"><tspan
           id="tspan11"
           style="fill:#000000;fill-opacity:1;stroke:none;stroke-width:1.32292"
           x="75.210632"
           y="139.40422">4</tspan></text>
    </g>
  </g>
</svg>
